<svg xmlns="http://www.w3.org/2000/svg" version="1.1" xmlns:xlink="http://www.w3.org/1999/xlink" xmlns:svgjs="http://svgjs.dev/svgjs" width="1440" height="560" preserveAspectRatio="none" viewBox="0 0 1440 560">
    <g mask="url(&quot;#SvgjsMask1179&quot;)" fill="none">
        <rect width="1440" height="560" x="0" y="0" fill="rgba(26, 33, 48, 1)"></rect>
        <g transform="translate(0, 0)" stroke-linecap="round">
            <path d="M380 191.98 L380 368.02" stroke-width="30" stroke="rgba(90, 114, 160, 1)"></path>
            <path d="M420 233.16 L420 326.85" stroke-width="30" stroke="rgba(90, 114, 160, 1)"></path>
            <path d="M460 161.63 L460 398.37" stroke-width="30" stroke="rgba(90, 114, 160, 1)"></path>
            <path d="M500 161.42 L500 398.58" stroke-width="30" stroke="rgba(90, 114, 160, 1)"></path>
            <path d="M540 176.11 L540 383.89" stroke-width="30" stroke="rgba(90, 114, 160, 1)"></path>
            <path d="M580 233.77 L580 326.23" stroke-width="30" stroke="rgba(90, 114, 160, 1)"></path>
            <path d="M620 191.93 L620 368.07" stroke-width="30" stroke="rgba(90, 114, 160, 1)"></path>
            <path d="M660 217.73 L660 342.27" stroke-width="30" stroke="rgba(90, 114, 160, 1)"></path>
            <path d="M700 164.12 L700 395.88" stroke-width="30" stroke="rgba(90, 114, 160, 1)"></path>
            <path d="M740 184.87 L740 375.13" stroke-width="30" stroke="rgba(90, 114, 160, 1)"></path>
            <path d="M780 167.78 L780 392.23" stroke-width="30" stroke="rgba(90, 114, 160, 1)"></path>
            <path d="M820 189.18 L820 370.82" stroke-width="30" stroke="rgba(90, 114, 160, 1)"></path>
            <path d="M860 210.8 L860 349.2" stroke-width="30" stroke="rgba(90, 114, 160, 1)"></path>
            <path d="M900 166.03 L900 393.98" stroke-width="30" stroke="rgba(90, 114, 160, 1)"></path>
            <path d="M940 242.78 L940 317.23" stroke-width="30" stroke="rgba(90, 114, 160, 1)"></path>
            <path d="M980 177.53 L980 382.48" stroke-width="30" stroke="rgba(90, 114, 160, 1)"></path>
            <path d="M1020 224.82 L1020 335.18" stroke-width="30" stroke="rgba(90, 114, 160, 1)"></path>
            <path d="M1060 188.72 L1060 371.27" stroke-width="30" stroke="rgba(90, 114, 160, 1)"></path>
        </g>
    </g>
    <defs>
        <mask id="SvgjsMask1179">
            <rect width="1440" height="560" fill="#ffffff"></rect>
        </mask>
    </defs>
</svg>